<?xml version="1.0" encoding="utf-8"?>
<!-- Generator: Adobe Illustrator 25.2.1, SVG Export Plug-In . SVG Version: 6.00 Build 0)  -->
<svg version="1.1" id="_x2018_ëîé_x5F_1" xmlns="http://www.w3.org/2000/svg" xmlns:xlink="http://www.w3.org/1999/xlink"
	 x="0px" y="0px" viewBox="0 0 556.48 519.6" style="enable-background:new 0 0 556.48 519.6;" xml:space="preserve">
<style type="text/css">
	.st0{fill:#DEDEDE;}
	.st1{fill:#182C47;}
	.st2{fill:#FFFFFF;}
	.st3{fill:#5692E8;}
</style>
<g>
	<g>
		<path class="st0" d="M413.12,356.33c-0.1-0.16-0.25-0.28-0.43-0.32c-0.18-0.05-0.37-0.02-0.53,0.08l-2.34,1.38l-1.38-2.34
			c-0.1-0.16-0.25-0.28-0.43-0.32c-0.18-0.05-0.37-0.02-0.53,0.08c-0.16,0.1-0.28,0.25-0.32,0.43c-0.05,0.18-0.02,0.37,0.08,0.53
			l1.38,2.34l-2.34,1.38c-0.16,0.1-0.28,0.25-0.32,0.43c-0.05,0.18-0.02,0.37,0.08,0.53c0.1,0.16,0.25,0.28,0.43,0.32
			c0.18,0.05,0.37,0.02,0.53-0.08l2.34-1.38l1.38,2.34c0.16,0.26,0.46,0.39,0.74,0.33c0.08-0.02,0.15-0.04,0.22-0.08
			c0.33-0.2,0.45-0.63,0.25-0.97l-1.38-2.34l2.34-1.38C413.2,357.1,413.31,356.67,413.12,356.33z"/>
		<path class="st0" d="M419.05,371.83c-1.69,0-3.07-1.38-3.07-3.07c0-1.69,1.38-3.07,3.07-3.07s3.07,1.38,3.07,3.07
			C422.12,370.45,420.74,371.83,419.05,371.83z M419.05,367.33c-0.79,0-1.43,0.64-1.43,1.43s0.64,1.43,1.43,1.43
			s1.43-0.64,1.43-1.43S419.84,367.33,419.05,367.33z"/>
		<path class="st0" d="M108.7,416.92c-1.69,0-3.07-1.38-3.07-3.07c0-1.69,1.38-3.07,3.07-3.07c1.69,0,3.07,1.38,3.07,3.07
			C111.77,415.55,110.39,416.92,108.7,416.92z M108.7,412.42c-0.79,0-1.43,0.64-1.43,1.43c0,0.79,0.64,1.43,1.43,1.43
			c0.79,0,1.43-0.64,1.43-1.43C110.13,413.06,109.49,412.42,108.7,412.42z"/>
		<path class="st0" d="M448.96,86.51c-1.69,0-3.07-1.38-3.07-3.07c0-1.69,1.38-3.07,3.07-3.07c1.69,0,3.07,1.38,3.07,3.07
			C452.04,85.13,450.66,86.51,448.96,86.51z M448.96,82c-0.79,0-1.43,0.64-1.43,1.43c0,0.79,0.64,1.43,1.43,1.43
			c0.79,0,1.43-0.64,1.43-1.43C450.39,82.64,449.75,82,448.96,82z"/>
		<path class="st0" d="M501.56,164.33c-0.17,0.08-0.3,0.23-0.36,0.4c-0.06,0.18-0.05,0.37,0.03,0.54l1.19,2.44l-2.44,1.19
			c-0.17,0.08-0.3,0.23-0.36,0.4c-0.06,0.18-0.05,0.37,0.03,0.54c0.08,0.17,0.23,0.3,0.4,0.36c0.18,0.06,0.37,0.05,0.54-0.03
			l2.44-1.19l1.19,2.44c0.08,0.17,0.23,0.3,0.4,0.36c0.18,0.06,0.37,0.05,0.54-0.03c0.17-0.08,0.3-0.23,0.36-0.4
			c0.06-0.18,0.05-0.37-0.03-0.54l-1.19-2.44l2.44-1.19c0.28-0.13,0.42-0.43,0.39-0.72c-0.01-0.08-0.03-0.15-0.07-0.23
			c-0.17-0.35-0.59-0.5-0.94-0.33l-2.44,1.19l-1.19-2.44C502.33,164.3,501.91,164.15,501.56,164.33z"/>
		<path class="st0" d="M457.17,222.8c-1.69,0-3.07-1.38-3.07-3.07c0-1.69,1.38-3.07,3.07-3.07c1.69,0,3.07,1.38,3.07,3.07
			C460.24,221.42,458.86,222.8,457.17,222.8z M457.17,218.3c-0.79,0-1.43,0.64-1.43,1.43s0.64,1.43,1.43,1.43s1.43-0.64,1.43-1.43
			S457.96,218.3,457.17,218.3z"/>
		<path class="st0" d="M65.34,265.64c-0.14,0.13-0.22,0.3-0.22,0.49c-0.01,0.19,0.06,0.37,0.19,0.51l1.86,1.98l-1.98,1.86
			c-0.14,0.13-0.22,0.3-0.22,0.49c-0.01,0.19,0.06,0.37,0.19,0.51c0.13,0.14,0.3,0.22,0.49,0.22c0.19,0.01,0.37-0.06,0.51-0.19
			l1.98-1.86l1.86,1.98c0.13,0.14,0.3,0.22,0.49,0.22c0.19,0.01,0.37-0.06,0.5-0.19c0.14-0.13,0.22-0.3,0.22-0.49
			c0.01-0.19-0.06-0.37-0.19-0.5l-1.86-1.98l1.98-1.86c0.22-0.21,0.28-0.53,0.16-0.8c-0.03-0.07-0.07-0.14-0.13-0.2
			c-0.27-0.28-0.71-0.3-1-0.03l-1.98,1.86l-1.86-1.98C66.07,265.39,65.63,265.37,65.34,265.64z"/>
		<path class="st0" d="M95.62,299.42c-1.69,0-3.07-1.38-3.07-3.07c0-1.69,1.38-3.07,3.07-3.07c1.69,0,3.07,1.38,3.07,3.07
			C98.69,298.04,97.31,299.42,95.62,299.42z M95.62,294.92c-0.79,0-1.43,0.64-1.43,1.43s0.64,1.43,1.43,1.43
			c0.79,0,1.43-0.64,1.43-1.43S96.41,294.92,95.62,294.92z"/>
		<g>
			<g>
				<path class="st0" d="M148.52,396.01c-0.33,0-0.61-0.26-0.62-0.59c-0.02-0.34,0.24-0.64,0.59-0.66c2.06-0.12,4.15-0.32,6.2-0.61
					c0.34-0.05,0.66,0.19,0.71,0.53c0.05,0.34-0.19,0.66-0.53,0.71c-2.09,0.29-4.21,0.5-6.31,0.62
					C148.55,396.01,148.53,396.01,148.52,396.01z M139.73,395.98c-0.01,0-0.03,0-0.04,0c-2.1-0.13-4.22-0.35-6.3-0.66
					c-0.34-0.05-0.58-0.37-0.53-0.71c0.05-0.34,0.37-0.58,0.71-0.53c2.05,0.3,4.13,0.52,6.2,0.65c0.34,0.02,0.61,0.32,0.59,0.66
					C140.33,395.72,140.05,395.98,139.73,395.98z M163.4,393.66c-0.28,0-0.53-0.19-0.6-0.47c-0.09-0.33,0.11-0.68,0.45-0.76
					c2-0.53,4.01-1.14,5.96-1.83c0.33-0.12,0.68,0.05,0.8,0.38s-0.05,0.68-0.38,0.8c-1.98,0.7-4.02,1.33-6.06,1.86
					C163.51,393.65,163.45,393.66,163.4,393.66z M124.87,393.51c-0.05,0-0.11-0.01-0.17-0.02c-2.03-0.55-4.06-1.2-6.04-1.93
					c-0.32-0.12-0.49-0.48-0.37-0.8c0.12-0.32,0.48-0.49,0.8-0.37c1.94,0.71,3.94,1.35,5.94,1.9c0.33,0.09,0.53,0.43,0.44,0.77
					C125.39,393.33,125.14,393.51,124.87,393.51z M177.51,388.38c-0.23,0-0.45-0.13-0.56-0.35c-0.15-0.31-0.03-0.68,0.28-0.84
					c1.85-0.92,3.69-1.93,5.46-3c0.3-0.18,0.68-0.08,0.86,0.21c0.18,0.3,0.08,0.68-0.21,0.86c-1.8,1.09-3.67,2.12-5.55,3.05
					C177.7,388.36,177.6,388.38,177.51,388.38z M110.81,388.09c-0.1,0-0.19-0.02-0.28-0.07c-1.88-0.95-3.74-1.99-5.53-3.1
					c-0.29-0.18-0.38-0.57-0.2-0.86c0.18-0.29,0.57-0.38,0.86-0.2c1.76,1.09,3.59,2.11,5.44,3.05c0.31,0.16,0.43,0.53,0.27,0.84
					C111.26,387.96,111.04,388.09,110.81,388.09z M190.25,380.36c-0.19,0-0.37-0.08-0.49-0.24c-0.21-0.27-0.16-0.67,0.11-0.88
					c1.63-1.27,3.23-2.63,4.74-4.04c0.25-0.23,0.65-0.22,0.88,0.03c0.23,0.25,0.22,0.65-0.03,0.88c-1.54,1.43-3.17,2.82-4.82,4.11
					C190.52,380.32,190.38,380.36,190.25,380.36z M98.13,379.96c-0.14,0-0.27-0.04-0.39-0.14c-1.65-1.31-3.26-2.7-4.79-4.14
					c-0.25-0.24-0.26-0.63-0.03-0.88c0.24-0.25,0.63-0.26,0.88-0.03c1.51,1.42,3.09,2.79,4.72,4.08c0.27,0.21,0.32,0.61,0.1,0.88
					C98.5,379.88,98.31,379.96,98.13,379.96z M201.11,369.93c-0.14,0-0.29-0.05-0.4-0.15c-0.26-0.22-0.29-0.62-0.07-0.88
					c1.34-1.58,2.63-3.23,3.83-4.91c0.2-0.28,0.59-0.35,0.87-0.14c0.28,0.2,0.35,0.59,0.14,0.87c-1.22,1.71-2.54,3.39-3.9,5
					C201.47,369.86,201.29,369.93,201.11,369.93z M87.34,369.46c-0.18,0-0.36-0.08-0.48-0.22c-1.35-1.61-2.65-3.3-3.86-5.02
					c-0.2-0.28-0.13-0.67,0.15-0.87c0.28-0.2,0.67-0.13,0.87,0.15c1.19,1.69,2.47,3.35,3.8,4.94c0.22,0.26,0.19,0.66-0.08,0.88
					C87.62,369.41,87.48,369.46,87.34,369.46z M209.67,357.53c-0.1,0-0.21-0.03-0.3-0.08c-0.3-0.17-0.41-0.55-0.25-0.85
					c1-1.81,1.93-3.69,2.77-5.58c0.14-0.32,0.51-0.46,0.83-0.32c0.32,0.14,0.46,0.51,0.32,0.83c-0.86,1.92-1.81,3.83-2.82,5.68
					C210.1,357.42,209.89,357.53,209.67,357.53z M78.88,357c-0.22,0-0.44-0.12-0.55-0.33c-1-1.85-1.93-3.77-2.77-5.7
					c-0.14-0.32,0.01-0.69,0.33-0.82c0.32-0.14,0.69,0.01,0.82,0.33c0.82,1.9,1.74,3.79,2.72,5.61c0.16,0.3,0.05,0.68-0.25,0.85
					C79.08,356.97,78.98,357,78.88,357z M215.56,343.67c-0.06,0-0.12-0.01-0.19-0.03c-0.33-0.1-0.51-0.45-0.41-0.78
					c0.61-1.98,1.15-4,1.59-6.02c0.07-0.34,0.41-0.55,0.74-0.48c0.34,0.07,0.55,0.41,0.48,0.74c-0.45,2.05-1,4.12-1.62,6.13
					C216.08,343.5,215.83,343.67,215.56,343.67z M73.13,343.08c-0.27,0-0.52-0.18-0.6-0.45c-0.6-2.01-1.13-4.08-1.56-6.14
					c-0.07-0.34,0.15-0.67,0.48-0.74c0.34-0.07,0.67,0.15,0.74,0.48c0.43,2.03,0.94,4.06,1.53,6.04c0.1,0.33-0.09,0.68-0.42,0.78
					C73.25,343.07,73.19,343.08,73.13,343.08z M218.54,328.9c-0.02,0-0.04,0-0.06,0c-0.34-0.03-0.6-0.34-0.56-0.68
					c0.2-2.06,0.31-4.15,0.34-6.22c0-0.35,0.29-0.63,0.63-0.62c0.35,0,0.62,0.29,0.62,0.63c-0.02,2.11-0.14,4.23-0.34,6.33
					C219.13,328.66,218.86,328.9,218.54,328.9z M70.28,328.29c-0.32,0-0.59-0.24-0.62-0.57c-0.19-2.1-0.29-4.23-0.3-6.33
					c0-0.35,0.28-0.63,0.62-0.63c0,0,0,0,0,0c0.34,0,0.62,0.28,0.63,0.62c0.01,2.07,0.11,4.16,0.3,6.23
					c0.03,0.34-0.22,0.65-0.57,0.68C70.31,328.29,70.29,328.29,70.28,328.29z M218.47,313.84c-0.32,0-0.59-0.24-0.62-0.56
					c-0.22-2.05-0.53-4.13-0.92-6.17l-0.02-0.08c-0.07-0.34,0.16-0.67,0.49-0.73c0.34-0.07,0.67,0.16,0.73,0.49l0.02,0.08
					c0.4,2.07,0.71,4.18,0.94,6.27c0.04,0.34-0.21,0.65-0.56,0.69C218.51,313.84,218.49,313.84,218.47,313.84z M70.45,313.22
					c-0.02,0-0.05,0-0.07,0c-0.34-0.04-0.59-0.35-0.55-0.69c0.24-2.09,0.57-4.2,0.98-6.26c0.07-0.34,0.4-0.56,0.74-0.49
					c0.34,0.07,0.56,0.4,0.49,0.74c-0.41,2.03-0.73,4.1-0.97,6.16C71.03,312.98,70.76,313.22,70.45,313.22z M215.35,299.02
					c-0.27,0-0.51-0.17-0.6-0.44c-0.63-1.97-1.35-3.94-2.14-5.85c-0.13-0.32,0.02-0.68,0.34-0.82c0.32-0.13,0.68,0.02,0.82,0.34
					c0.8,1.94,1.54,3.94,2.17,5.95c0.1,0.33-0.08,0.68-0.41,0.79C215.48,299.01,215.42,299.02,215.35,299.02z M73.67,298.5
					c-0.06,0-0.13-0.01-0.2-0.03c-0.33-0.11-0.51-0.46-0.4-0.79c0.66-2,1.41-3.99,2.23-5.93c0.13-0.32,0.5-0.47,0.82-0.33
					c0.32,0.13,0.47,0.5,0.33,0.82c-0.81,1.91-1.55,3.87-2.19,5.83C74.18,298.34,73.93,298.5,73.67,298.5z M209.36,285.2
					c-0.22,0-0.43-0.11-0.55-0.32c-1.01-1.8-2.12-3.59-3.28-5.3c-0.19-0.29-0.12-0.67,0.17-0.87c0.29-0.19,0.67-0.12,0.87,0.17
					c1.18,1.74,2.3,3.55,3.33,5.39c0.17,0.3,0.06,0.68-0.24,0.85C209.57,285.18,209.46,285.2,209.36,285.2z M79.79,284.74
					c-0.11,0-0.21-0.03-0.31-0.08c-0.3-0.17-0.4-0.55-0.23-0.85c1.04-1.83,2.18-3.63,3.37-5.36c0.2-0.28,0.59-0.36,0.87-0.16
					c0.28,0.2,0.36,0.59,0.16,0.87c-1.17,1.7-2.29,3.48-3.32,5.28C80.22,284.63,80.01,284.74,79.79,284.74z M200.69,272.89
					c-0.17,0-0.35-0.07-0.47-0.22c-1.36-1.56-2.8-3.09-4.28-4.53c-0.25-0.24-0.25-0.64-0.01-0.88c0.24-0.25,0.64-0.25,0.88-0.01
					c1.51,1.47,2.97,3.02,4.35,4.6c0.23,0.26,0.2,0.66-0.06,0.88C200.98,272.84,200.83,272.89,200.69,272.89z M88.54,272.48
					c-0.15,0-0.29-0.05-0.41-0.16c-0.26-0.23-0.28-0.62-0.06-0.88c1.39-1.58,2.86-3.12,4.38-4.58c0.25-0.24,0.64-0.23,0.88,0.02
					c0.24,0.25,0.23,0.64-0.02,0.88c-1.49,1.43-2.94,2.95-4.31,4.5C88.89,272.41,88.72,272.48,88.54,272.48z M189.71,262.58
					c-0.13,0-0.27-0.04-0.38-0.13c-1.64-1.26-3.36-2.46-5.1-3.58c-0.29-0.19-0.38-0.57-0.19-0.86c0.19-0.29,0.57-0.38,0.86-0.19
					c1.77,1.13,3.52,2.36,5.19,3.64c0.27,0.21,0.33,0.6,0.12,0.88C190.09,262.49,189.9,262.58,189.71,262.58z M99.57,262.23
					c-0.19,0-0.38-0.09-0.5-0.25c-0.21-0.28-0.15-0.67,0.12-0.88c1.68-1.27,3.43-2.48,5.21-3.6c0.29-0.18,0.68-0.1,0.86,0.2
					c0.18,0.29,0.1,0.68-0.2,0.86c-1.75,1.1-3.47,2.3-5.13,3.54C99.84,262.19,99.71,262.23,99.57,262.23z M176.89,254.67
					c-0.09,0-0.18-0.02-0.27-0.06c-1.86-0.9-3.79-1.74-5.72-2.48c-0.32-0.12-0.48-0.49-0.36-0.81c0.12-0.32,0.49-0.48,0.81-0.36
					c1.96,0.76,3.92,1.61,5.81,2.53c0.31,0.15,0.44,0.53,0.29,0.84C177.35,254.54,177.13,254.67,176.89,254.67z M112.45,254.42
					c-0.23,0-0.46-0.13-0.57-0.36c-0.15-0.31-0.02-0.69,0.3-0.83c1.9-0.9,3.86-1.73,5.84-2.47c0.32-0.12,0.68,0.04,0.8,0.37
					c0.12,0.32-0.04,0.68-0.37,0.8c-1.94,0.73-3.87,1.54-5.74,2.43C112.63,254.4,112.54,254.42,112.45,254.42z M162.75,249.49
					c-0.05,0-0.1-0.01-0.15-0.02c-2.01-0.51-4.06-0.94-6.1-1.28c-0.34-0.06-0.57-0.38-0.51-0.72c0.06-0.34,0.38-0.57,0.72-0.51
					c2.08,0.34,4.16,0.78,6.2,1.3c0.33,0.09,0.54,0.43,0.45,0.76C163.28,249.3,163.03,249.49,162.75,249.49z M126.64,249.38
					c-0.28,0-0.54-0.19-0.61-0.48c-0.08-0.34,0.12-0.67,0.46-0.76c1.24-0.3,2.51-0.58,3.78-0.82c0.81-0.15,1.63-0.3,2.44-0.43
					c0.34-0.05,0.66,0.18,0.72,0.52c0.05,0.34-0.18,0.66-0.52,0.72c-0.8,0.13-1.6,0.27-2.4,0.42c-1.24,0.24-2.49,0.51-3.71,0.81
					C126.74,249.37,126.69,249.38,126.64,249.38z M147.84,247.28c-0.01,0-0.02,0-0.03,0c-1.1-0.05-2.21-0.07-3.3-0.07
					c-0.97,0-1.96,0.02-2.93,0.06c-0.34,0.02-0.64-0.25-0.65-0.6c-0.01-0.35,0.25-0.64,0.6-0.65c0.99-0.04,1.99-0.06,2.98-0.06
					c1.11,0,2.24,0.03,3.36,0.08c0.35,0.02,0.61,0.31,0.6,0.65C148.45,247.02,148.18,247.28,147.84,247.28z"/>
			</g>
			<g>
				<path class="st0" d="M373.3,339.2c-0.36,0.02-0.72,0.05-1.08,0.07c-0.34,0.02-0.64-0.24-0.66-0.59
					c-0.02-0.34,0.24-0.64,0.58-0.66c0,0,0,0,0.01,0c2.04-0.12,4.11-0.28,6.15-0.49c0.34-0.04,0.65,0.21,0.69,0.56
					c0.04,0.34-0.21,0.65-0.56,0.69C376.73,338.95,375,339.09,373.3,339.2z M363.54,339.47c-0.02,0-0.03,0-0.05,0
					c-2.07-0.02-4.16-0.09-6.23-0.21c-0.34-0.02-0.61-0.32-0.59-0.66c0.02-0.34,0.32-0.61,0.66-0.59c2.04,0.12,4.12,0.19,6.17,0.21
					c0.35,0,0.62,0.29,0.62,0.63C364.12,339.18,363.87,339.45,363.54,339.47z M387.01,337.59c-0.32,0.02-0.6-0.2-0.66-0.52
					c-0.06-0.34,0.17-0.66,0.51-0.72c2.02-0.35,4.06-0.74,6.06-1.18c0.34-0.07,0.67,0.14,0.74,0.48c0.07,0.34-0.14,0.67-0.48,0.74
					c-2.02,0.44-4.07,0.84-6.12,1.19C387.05,337.59,387.03,337.59,387.01,337.59z M348.7,338.47c-0.04,0-0.08,0-0.12,0
					c-2.05-0.26-4.13-0.57-6.16-0.92c-0.34-0.06-0.57-0.38-0.51-0.72c0.06-0.34,0.38-0.57,0.72-0.51c2.02,0.35,4.07,0.66,6.1,0.91
					c0.34,0.04,0.59,0.36,0.54,0.7C349.24,338.22,348.99,338.45,348.7,338.47z M401.51,334.26c-0.29,0.02-0.56-0.16-0.64-0.45
					c-0.1-0.33,0.09-0.68,0.43-0.77c1.97-0.57,3.95-1.2,5.88-1.86c0.33-0.11,0.68,0.06,0.79,0.39c0.11,0.33-0.06,0.68-0.39,0.79
					c-1.96,0.67-3.95,1.3-5.94,1.88C401.6,334.25,401.55,334.26,401.51,334.26z M334.06,335.77c-0.06,0-0.13,0-0.19-0.02
					c-2.01-0.49-4.04-1.04-6.03-1.63c-0.33-0.1-0.52-0.45-0.42-0.78c0.1-0.33,0.45-0.52,0.78-0.42c1.97,0.58,3.98,1.13,5.97,1.61
					c0.34,0.08,0.54,0.42,0.46,0.76C334.56,335.56,334.32,335.75,334.06,335.77z M415.53,329.3c-0.26,0.02-0.51-0.13-0.62-0.38
					c-0.13-0.32,0.02-0.68,0.33-0.82c1.89-0.79,3.78-1.64,5.63-2.52c0.31-0.15,0.68-0.02,0.83,0.29c0.15,0.31,0.02,0.68-0.29,0.83
					c-1.87,0.89-3.78,1.75-5.69,2.55C415.67,329.28,415.6,329.3,415.53,329.3z M319.81,331.4c-0.08,0.01-0.17-0.01-0.26-0.04
					c-1.94-0.72-3.89-1.5-5.8-2.31c-0.32-0.14-0.47-0.5-0.33-0.82c0.14-0.32,0.5-0.47,0.82-0.33c1.89,0.8,3.82,1.57,5.74,2.29
					c0.32,0.12,0.49,0.48,0.37,0.8C320.27,331.23,320.05,331.39,319.81,331.4z M428.89,322.77c-0.23,0.02-0.46-0.1-0.59-0.32
					c-0.17-0.3-0.06-0.68,0.24-0.85c1.78-1,3.56-2.06,5.29-3.15c0.29-0.18,0.68-0.1,0.86,0.2c0.18,0.29,0.1,0.68-0.2,0.86
					c-1.75,1.1-3.55,2.17-5.35,3.18C429.07,322.74,428.98,322.77,428.89,322.77z M306.17,325.44c-0.11,0.01-0.22-0.01-0.32-0.07
					c-1.85-0.94-3.69-1.93-5.49-2.95c-0.3-0.17-0.41-0.55-0.23-0.85c0.17-0.3,0.55-0.41,0.85-0.23c1.78,1.01,3.61,2,5.44,2.92
					c0.31,0.16,0.43,0.53,0.27,0.84C306.58,325.3,306.38,325.42,306.17,325.44z M441.4,314.76c-0.21,0.01-0.42-0.08-0.55-0.26
					c-0.2-0.28-0.14-0.67,0.14-0.87c1.66-1.2,3.31-2.46,4.9-3.73c0.27-0.22,0.66-0.17,0.88,0.1c0.22,0.27,0.17,0.66-0.1,0.88
					c-1.61,1.29-3.28,2.56-4.95,3.77C441.62,314.71,441.51,314.75,441.4,314.76z M293.3,317.96c-0.13,0.01-0.27-0.02-0.38-0.1
					c-1.73-1.14-3.45-2.34-5.12-3.55c-0.28-0.2-0.34-0.59-0.14-0.87c0.2-0.28,0.59-0.34,0.87-0.14c1.65,1.21,3.36,2.39,5.07,3.52
					c0.29,0.19,0.37,0.58,0.18,0.87C293.67,317.85,293.49,317.95,293.3,317.96z M452.92,305.36c-0.18,0.01-0.37-0.06-0.5-0.2
					c-0.23-0.25-0.22-0.65,0.04-0.88c1.51-1.38,3.01-2.82,4.45-4.27c0.24-0.24,0.64-0.25,0.88,0c0.24,0.24,0.25,0.64,0,0.88
					c-1.46,1.47-2.97,2.92-4.49,4.31C453.19,305.3,453.05,305.35,452.92,305.36z M281.36,309.08c-0.15,0.01-0.31-0.04-0.44-0.14
					c-1.59-1.33-3.16-2.71-4.68-4.11c-0.25-0.23-0.27-0.63-0.04-0.88c0.23-0.25,0.63-0.27,0.88-0.04c1.51,1.39,3.07,2.76,4.64,4.07
					c0.26,0.22,0.3,0.62,0.08,0.88C281.69,308.99,281.53,309.07,281.36,309.08z M463.3,294.71c-0.16,0.01-0.32-0.04-0.45-0.15
					c-0.26-0.23-0.29-0.62-0.06-0.88c1.34-1.55,2.67-3.14,3.94-4.75c0.21-0.27,0.61-0.32,0.88-0.1c0.27,0.21,0.32,0.61,0.1,0.88
					c-1.28,1.62-2.62,3.24-3.98,4.8C463.62,294.63,463.46,294.7,463.3,294.71z M270.51,298.9c-0.18,0.01-0.36-0.05-0.49-0.19
					c-1.42-1.5-2.83-3.05-4.18-4.61c-0.23-0.26-0.2-0.66,0.06-0.88c0.26-0.23,0.66-0.2,0.88,0.06c1.34,1.55,2.73,3.08,4.14,4.57
					c0.24,0.25,0.23,0.65-0.02,0.88C270.79,298.83,270.66,298.89,270.51,298.9z M472.41,282.95c-0.14,0.01-0.27-0.03-0.39-0.11
					c-0.28-0.2-0.36-0.58-0.16-0.87c1.16-1.69,2.3-3.43,3.38-5.17c0.18-0.29,0.57-0.38,0.86-0.2c0.29,0.18,0.38,0.57,0.2,0.86
					c-1.09,1.76-2.24,3.51-3.41,5.22C472.77,282.85,472.6,282.94,472.41,282.95z M260.9,287.56c-0.2,0.01-0.41-0.07-0.54-0.25
					c-1.24-1.65-2.46-3.35-3.63-5.05c-0.19-0.29-0.12-0.67,0.16-0.87c0.29-0.19,0.67-0.12,0.87,0.16c1.15,1.69,2.36,3.37,3.59,5.01
					c0.21,0.28,0.15,0.67-0.12,0.88C261.13,287.51,261.01,287.56,260.9,287.56z M480.13,270.23c-0.11,0.01-0.23-0.02-0.33-0.07
					c-0.3-0.16-0.42-0.54-0.26-0.85c0.96-1.81,1.9-3.67,2.77-5.52c0.15-0.31,0.52-0.45,0.83-0.3c0.31,0.15,0.45,0.52,0.3,0.83
					c-0.88,1.87-1.82,3.75-2.8,5.57C480.54,270.1,480.34,270.22,480.13,270.23z M252.64,275.21c-0.23,0.01-0.46-0.1-0.58-0.31
					c-1.05-1.78-2.06-3.61-3.02-5.43c-0.16-0.31-0.04-0.68,0.26-0.84c0.31-0.16,0.68-0.04,0.84,0.26c0.95,1.81,1.96,3.62,3,5.38
					c0.18,0.3,0.08,0.68-0.22,0.86C252.83,275.18,252.73,275.2,252.64,275.21z M486.36,256.71c-0.09,0.01-0.18-0.01-0.27-0.04
					c-0.32-0.13-0.48-0.49-0.35-0.81c0.75-1.91,1.46-3.86,2.12-5.8c0.11-0.33,0.47-0.5,0.79-0.39c0.33,0.11,0.5,0.47,0.39,0.79
					c-0.66,1.96-1.39,3.93-2.14,5.86C486.81,256.55,486.6,256.69,486.36,256.71z M245.85,261.99c-0.25,0.02-0.5-0.12-0.61-0.37
					c-0.84-1.89-1.64-3.83-2.39-5.76c-0.12-0.32,0.04-0.68,0.36-0.81c0.32-0.12,0.68,0.04,0.81,0.36c0.74,1.91,1.53,3.83,2.36,5.7
					c0.14,0.32,0,0.69-0.32,0.82C245.99,261.97,245.92,261.98,245.85,261.99z M491.01,242.56c-0.07,0-0.13,0-0.2-0.02
					c-0.33-0.09-0.53-0.43-0.44-0.76c0.53-1.99,1.01-4.01,1.44-6.01c0.07-0.34,0.41-0.55,0.74-0.48c0.34,0.07,0.55,0.41,0.48,0.74
					c-0.43,2.02-0.93,4.07-1.46,6.07C491.5,242.36,491.27,242.54,491.01,242.56z M240.61,248.06c-0.28,0.02-0.55-0.16-0.64-0.44
					c-0.61-1.97-1.19-3.99-1.71-5.99c-0.09-0.33,0.11-0.68,0.45-0.76c0.33-0.09,0.68,0.11,0.76,0.45c0.52,1.98,1.09,3.98,1.7,5.93
					c0.1,0.33-0.08,0.68-0.41,0.78C240.71,248.05,240.66,248.06,240.61,248.06z M494,227.97c-0.04,0-0.09,0-0.13-0.01
					c-0.34-0.05-0.58-0.37-0.53-0.71c0.29-2.03,0.54-4.09,0.74-6.13c0.03-0.34,0.34-0.6,0.68-0.56c0.34,0.03,0.6,0.34,0.56,0.68
					c-0.2,2.06-0.45,4.14-0.75,6.19C494.53,227.73,494.29,227.95,494,227.97z M237,233.63c-0.31,0.02-0.59-0.19-0.65-0.51
					c-0.39-2.03-0.73-4.1-1.02-6.15c-0.05-0.34,0.19-0.66,0.53-0.71c0.34-0.05,0.66,0.19,0.71,0.53c0.29,2.03,0.63,4.08,1.01,6.09
					c0.06,0.34-0.16,0.67-0.5,0.73C237.05,233.63,237.03,233.63,237,233.63z M495.29,213.15c-0.02,0-0.04,0-0.06,0
					c-0.35-0.01-0.62-0.3-0.61-0.64c0.06-2.05,0.07-4.12,0.04-6.17c-0.01-0.35,0.27-0.63,0.61-0.64c0.35-0.01,0.63,0.27,0.64,0.61
					c0.04,2.07,0.03,4.16-0.04,6.23C495.86,212.87,495.61,213.13,495.29,213.15z M235.05,218.88c-0.34,0.02-0.64-0.23-0.66-0.58
					c-0.04-0.49-0.07-0.97-0.1-1.46c-0.1-1.58-0.18-3.18-0.22-4.76c-0.01-0.35,0.26-0.63,0.61-0.64c0.35-0.01,0.63,0.26,0.64,0.61
					c0.04,1.57,0.12,3.15,0.22,4.72c0.03,0.48,0.07,0.96,0.1,1.45C235.66,218.55,235.4,218.85,235.05,218.88
					C235.05,218.88,235.05,218.88,235.05,218.88z M494.88,198.28c-0.34,0.02-0.63-0.23-0.66-0.57c-0.17-2.04-0.4-4.1-0.66-6.14
					l-0.03-0.2c-0.05-0.34,0.19-0.66,0.54-0.7c0.34-0.05,0.66,0.2,0.7,0.54l0.03,0.2c0.27,2.05,0.5,4.14,0.67,6.2
					c0.03,0.34-0.23,0.65-0.57,0.68C494.89,198.28,494.88,198.28,494.88,198.28z M234.77,204.01c-0.02,0-0.04,0-0.07,0
					c-0.35-0.01-0.61-0.3-0.6-0.65c0.08-2.07,0.21-4.16,0.39-6.22c0.03-0.34,0.33-0.6,0.68-0.57c0.34,0.03,0.6,0.33,0.57,0.68
					c-0.18,2.04-0.3,4.11-0.38,6.16C235.34,203.73,235.08,203.98,234.77,204.01z M492.76,183.35c-0.31,0.02-0.59-0.19-0.65-0.5
					c-0.4-2.01-0.86-4.03-1.36-6.02c-0.08-0.34,0.12-0.67,0.45-0.76c0.33-0.08,0.67,0.12,0.76,0.45c0.5,2,0.96,4.05,1.37,6.08
					c0.07,0.34-0.15,0.67-0.49,0.74C492.81,183.34,492.78,183.34,492.76,183.35z M236.19,189.2c-0.04,0-0.09,0-0.14-0.01
					c-0.34-0.05-0.58-0.37-0.52-0.71c0.32-2.05,0.69-4.12,1.1-6.15c0.07-0.34,0.4-0.56,0.74-0.49c0.34,0.07,0.56,0.4,0.49,0.74
					c-0.41,2.01-0.78,4.06-1.09,6.09C236.72,188.96,236.47,189.18,236.19,189.2z M489,168.95c-0.28,0.02-0.55-0.15-0.63-0.43
					c-0.63-1.95-1.31-3.91-2.04-5.83c-0.12-0.32,0.04-0.68,0.36-0.81c0.32-0.12,0.68,0.04,0.81,0.36c0.73,1.93,1.42,3.91,2.06,5.88
					c0.11,0.33-0.07,0.68-0.4,0.79C489.1,168.94,489.05,168.95,489,168.95z M239.3,174.62c-0.07,0-0.14,0-0.21-0.02
					c-0.33-0.09-0.53-0.44-0.44-0.77c0.55-2,1.15-4.01,1.8-5.98c0.11-0.33,0.46-0.51,0.79-0.4c0.33,0.11,0.51,0.46,0.4,0.79
					c-0.64,1.95-1.24,3.94-1.78,5.92C239.79,174.43,239.56,174.61,239.3,174.62z M483.63,155.08c-0.25,0.02-0.5-0.12-0.61-0.37
					c-0.85-1.86-1.75-3.73-2.69-5.55c-0.16-0.31-0.04-0.68,0.27-0.84c0.31-0.16,0.68-0.04,0.84,0.27c0.95,1.84,1.86,3.73,2.72,5.61
					c0.14,0.31,0,0.69-0.31,0.83C483.78,155.06,483.7,155.08,483.63,155.08z M244.07,160.51c-0.09,0.01-0.18-0.01-0.27-0.04
					c-0.32-0.13-0.48-0.49-0.35-0.81c0.77-1.92,1.6-3.85,2.47-5.73c0.14-0.31,0.52-0.45,0.83-0.31c0.31,0.14,0.45,0.52,0.31,0.83
					c-0.86,1.86-1.68,3.77-2.45,5.67C244.52,160.35,244.31,160.5,244.07,160.51z M476.7,141.93c-0.23,0.01-0.45-0.09-0.58-0.3
					c-1.05-1.75-2.17-3.5-3.3-5.2c-0.19-0.29-0.12-0.68,0.17-0.87c0.29-0.19,0.68-0.12,0.87,0.17c1.15,1.72,2.27,3.48,3.34,5.25
					c0.18,0.3,0.08,0.68-0.21,0.86C476.89,141.89,476.8,141.92,476.7,141.93z M250.42,147.04c-0.11,0.01-0.23-0.02-0.34-0.07
					c-0.3-0.16-0.42-0.54-0.25-0.85c0.99-1.82,2.03-3.64,3.1-5.41c0.18-0.3,0.56-0.39,0.86-0.21c0.3,0.18,0.39,0.56,0.21,0.86
					c-1.06,1.75-2.1,3.56-3.07,5.36C250.82,146.91,250.63,147.03,250.42,147.04z M468.32,129.66c-0.2,0.01-0.4-0.07-0.54-0.24
					c-1.25-1.62-2.56-3.23-3.88-4.79c-0.22-0.26-0.19-0.66,0.07-0.88c0.26-0.22,0.66-0.19,0.88,0.07c1.34,1.57,2.65,3.2,3.92,4.84
					c0.21,0.27,0.16,0.67-0.11,0.88C468.55,129.61,468.44,129.65,468.32,129.66z M258.25,134.39c-0.14,0.01-0.28-0.03-0.4-0.11
					c-0.28-0.2-0.35-0.59-0.15-0.87c1.19-1.69,2.43-3.38,3.7-5.02c0.21-0.27,0.6-0.32,0.88-0.11c0.27,0.21,0.32,0.6,0.11,0.88
					c-1.25,1.62-2.49,3.29-3.66,4.97C258.61,134.28,258.44,134.38,258.25,134.39z M458.58,118.42c-0.18,0.01-0.36-0.05-0.49-0.19
					c-1.43-1.47-2.91-2.92-4.4-4.32c-0.25-0.24-0.26-0.63-0.03-0.88c0.24-0.25,0.63-0.26,0.88-0.03c1.51,1.41,3,2.88,4.44,4.36
					c0.24,0.25,0.23,0.64-0.01,0.88C458.87,118.35,458.73,118.41,458.58,118.42z M267.47,122.71c-0.16,0.01-0.32-0.04-0.45-0.16
					c-0.26-0.23-0.28-0.62-0.05-0.88c1.37-1.55,2.8-3.08,4.24-4.56c0.24-0.25,0.64-0.25,0.88-0.01c0.25,0.24,0.25,0.64,0.01,0.88
					c-1.43,1.47-2.84,2.99-4.2,4.52C267.78,122.63,267.63,122.7,267.47,122.71z M447.63,108.35c-0.15,0.01-0.31-0.04-0.44-0.14
					c-1.58-1.3-3.22-2.58-4.87-3.8c-0.28-0.21-0.33-0.6-0.13-0.87c0.21-0.28,0.6-0.33,0.87-0.13c1.66,1.23,3.31,2.52,4.91,3.83
					c0.27,0.22,0.31,0.61,0.09,0.88C447.96,108.27,447.8,108.34,447.63,108.35z M277.94,112.15c-0.18,0.01-0.37-0.06-0.51-0.21
					c-0.23-0.26-0.21-0.65,0.05-0.88c1.54-1.38,3.13-2.75,4.73-4.05c0.27-0.22,0.66-0.18,0.88,0.09c0.22,0.27,0.18,0.66-0.09,0.88
					c-1.58,1.29-3.16,2.64-4.68,4.01C278.21,112.09,278.08,112.14,277.94,112.15z M435.6,99.59c-0.13,0.01-0.26-0.02-0.38-0.1
					c-1.72-1.11-3.49-2.2-5.27-3.22c-0.3-0.17-0.4-0.56-0.23-0.85c0.17-0.3,0.56-0.4,0.85-0.23c1.79,1.04,3.58,2.13,5.32,3.25
					c0.29,0.19,0.37,0.57,0.19,0.86C435.98,99.48,435.8,99.58,435.6,99.59z M289.55,102.85c-0.21,0.01-0.42-0.08-0.55-0.26
					c-0.2-0.28-0.13-0.67,0.15-0.87c1.68-1.2,3.42-2.37,5.15-3.48c0.29-0.19,0.68-0.1,0.86,0.19c0.19,0.29,0.1,0.68-0.19,0.86
					c-1.72,1.1-3.44,2.27-5.1,3.45C289.77,102.81,289.66,102.85,289.55,102.85z M422.66,92.25c-0.11,0.01-0.21-0.01-0.32-0.06
					c-1.84-0.91-3.72-1.79-5.6-2.61c-0.32-0.14-0.46-0.51-0.32-0.82c0.14-0.32,0.51-0.46,0.82-0.32c1.9,0.83,3.8,1.71,5.66,2.63
					c0.31,0.15,0.44,0.53,0.28,0.84C423.08,92.11,422.87,92.23,422.66,92.25z M302.13,94.95c-0.23,0.02-0.47-0.1-0.59-0.32
					c-0.17-0.3-0.06-0.68,0.25-0.85c1.81-1,3.67-1.97,5.53-2.88c0.31-0.15,0.68-0.02,0.84,0.29c0.15,0.31,0.02,0.68-0.29,0.84
					c-1.84,0.9-3.68,1.86-5.48,2.85C302.31,94.92,302.22,94.94,302.13,94.95z M408.96,86.42c-0.08,0.01-0.17-0.01-0.25-0.04
					c-1.93-0.69-3.91-1.35-5.87-1.95c-0.33-0.1-0.52-0.45-0.42-0.78c0.1-0.33,0.45-0.52,0.78-0.42c1.98,0.61,3.97,1.27,5.92,1.97
					c0.33,0.12,0.49,0.47,0.38,0.8C409.42,86.25,409.2,86.41,408.96,86.42z M315.55,88.53c-0.26,0.02-0.51-0.13-0.62-0.39
					c-0.13-0.32,0.02-0.68,0.34-0.82c1.91-0.78,3.87-1.53,5.82-2.22c0.33-0.12,0.68,0.05,0.8,0.38c0.12,0.33-0.05,0.68-0.38,0.8
					c-1.93,0.68-3.87,1.42-5.77,2.2C315.68,88.51,315.61,88.53,315.55,88.53z M394.67,82.2c-0.06,0-0.12,0-0.18-0.02
					c-2-0.47-4.04-0.89-6.06-1.26c-0.34-0.06-0.56-0.39-0.5-0.73c0.06-0.34,0.39-0.56,0.73-0.5c2.04,0.37,4.1,0.8,6.11,1.28
					c0.34,0.08,0.55,0.41,0.47,0.75C395.17,81.99,394.94,82.18,394.67,82.2z M329.62,83.7c-0.29,0.02-0.56-0.17-0.64-0.46
					c-0.09-0.33,0.1-0.68,0.43-0.77c1.99-0.56,4.02-1.08,6.04-1.54c0.34-0.08,0.67,0.13,0.75,0.47c0.08,0.34-0.13,0.67-0.47,0.75
					c-2,0.46-4.01,0.97-5.98,1.53C329.7,83.69,329.66,83.69,329.62,83.7z M380,79.65c-0.04,0-0.07,0-0.11,0
					c-2.03-0.23-4.1-0.42-6.15-0.56c-0.34-0.02-0.61-0.32-0.58-0.67c0.02-0.34,0.32-0.61,0.67-0.58c2.06,0.14,4.15,0.33,6.21,0.56
					c0.34,0.04,0.59,0.35,0.55,0.69C380.54,79.4,380.29,79.63,380,79.65z M344.14,80.5c-0.32,0.02-0.61-0.2-0.66-0.52
					c-0.05-0.34,0.18-0.66,0.52-0.72c1.27-0.21,2.57-0.4,3.85-0.56c0.77-0.1,1.55-0.2,2.32-0.29c0.34-0.04,0.65,0.21,0.69,0.55
					c0.04,0.34-0.21,0.65-0.55,0.69c-0.76,0.09-1.54,0.18-2.3,0.28c-1.27,0.17-2.55,0.36-3.81,0.56
					C344.18,80.49,344.16,80.49,344.14,80.5z M365.15,78.8c-0.01,0-0.03,0-0.04,0c-2.05,0-4.12,0.05-6.17,0.15
					c-0.34,0.02-0.64-0.25-0.65-0.59c-0.02-0.34,0.24-0.63,0.58-0.65c0,0,0.01,0,0.01,0c2.07-0.1,4.16-0.15,6.23-0.15
					c0.35,0,0.63,0.28,0.63,0.63C365.73,78.51,365.47,78.78,365.15,78.8z"/>
			</g>
		</g>
	</g>
	<g>
		<g>
			<polygon class="st1" points="385.69,155.3 385.69,370.42 385.12,370.42 368.84,354.58 352.55,370.42 350.85,370.42 
				334.57,354.58 318.28,370.42 316.6,370.42 300.34,354.61 284.08,370.42 282.42,370.42 266.14,354.59 249.87,370.42 
				248.15,370.42 231.87,354.59 215.59,370.42 213.9,370.42 197.65,354.62 181.41,370.42 180.33,370.42 180.33,95.51 325.9,95.51 
							"/>
			<polygon class="st0" points="385.69,155.3 325.9,155.3 325.9,95.51 			"/>
		</g>
		<g>
			<path class="st2" d="M235.6,267.21v-8.04h-21.71c-2.74,0-4.79-0.62-6.16-1.86c-1.37-1.24-2.05-2.93-2.05-5.06
				c0-0.55,0.1-1.1,0.3-1.67c0.2-0.56,0.5-1.15,0.91-1.77c0.4-0.62,0.82-1.22,1.25-1.79c0.43-0.58,0.97-1.28,1.6-2.12l22.92-30.67
				c1.5-2.02,2.73-3.48,3.7-4.39c0.97-0.91,2.13-1.36,3.48-1.36c4.38,0,6.57,2.51,6.57,7.53v33.48h1.86c2.22,0,4,0.3,5.34,0.91
				c1.34,0.61,2.01,1.93,2.01,3.98c0,1.67-0.55,2.89-1.64,3.65c-1.1,0.76-2.74,1.15-4.93,1.15h-2.64v8.04
				c0,2.22-0.49,3.87-1.47,4.95c-0.98,1.08-2.29,1.62-3.94,1.62c-1.62,0-2.92-0.56-3.91-1.67
				C236.09,271.01,235.6,269.38,235.6,267.21z M217,249.48h18.6v-25.13L217,249.48z"/>
			<path class="st2" d="M305.67,241.61c0,4.73-0.29,8.8-0.87,12.2c-0.58,3.4-1.64,6.49-3.2,9.26c-1.96,3.4-4.5,6.03-7.61,7.87
				c-3.11,1.85-6.57,2.77-10.38,2.77c-4.38,0-8.31-1.24-11.79-3.72c-3.48-2.48-6.09-5.91-7.85-10.29c-0.89-2.39-1.55-5.04-1.97-7.94
				c-0.42-2.9-0.63-6.03-0.63-9.41c0-4.35,0.23-8.28,0.69-11.76c0.46-3.49,1.18-6.49,2.16-9c1.7-4.15,4.17-7.32,7.42-9.49
				c3.24-2.18,7.12-3.27,11.61-3.27c2.97,0,5.67,0.48,8.09,1.45c2.42,0.97,4.55,2.38,6.38,4.24c1.83,1.86,3.38,4.16,4.65,6.9
				C304.57,226.17,305.67,232.9,305.67,241.61z M293.81,240.74c0-5.28-0.32-9.59-0.95-12.95c-0.63-3.36-1.7-5.9-3.2-7.61
				c-1.5-1.72-3.58-2.57-6.23-2.57c-3.81,0-6.45,1.92-7.94,5.75c-1.49,3.84-2.23,9.75-2.23,17.73c0,5.42,0.32,9.86,0.95,13.32
				c0.63,3.46,1.7,6.08,3.2,7.85c1.5,1.77,3.53,2.66,6.1,2.66c2.65,0,4.73-0.92,6.23-2.77c1.5-1.85,2.55-4.48,3.16-7.92
				C293.51,250.81,293.81,246.31,293.81,240.74z"/>
			<path class="st2" d="M340.87,267.21v-8.04h-21.71c-2.74,0-4.79-0.62-6.16-1.86c-1.37-1.24-2.05-2.93-2.05-5.06
				c0-0.55,0.1-1.1,0.3-1.67c0.2-0.56,0.5-1.15,0.91-1.77c0.4-0.62,0.82-1.22,1.25-1.79c0.43-0.58,0.97-1.28,1.6-2.12l22.92-30.67
				c1.5-2.02,2.73-3.48,3.7-4.39c0.97-0.91,2.13-1.36,3.48-1.36c4.38,0,6.57,2.51,6.57,7.53v33.48h1.86c2.22,0,4,0.3,5.34,0.91
				c1.34,0.61,2.01,1.93,2.01,3.98c0,1.67-0.55,2.89-1.64,3.65c-1.1,0.76-2.74,1.15-4.93,1.15h-2.64v8.04
				c0,2.22-0.49,3.87-1.47,4.95c-0.98,1.08-2.29,1.62-3.94,1.62c-1.62,0-2.92-0.56-3.91-1.67
				C341.37,271.01,340.87,269.38,340.87,267.21z M322.27,249.48h18.6v-25.13L322.27,249.48z"/>
		</g>
	</g>
	<g>
		<g>
			<path class="st3" d="M281.41,433.57L281.41,433.57c-2.83,2.83-7.42,2.83-10.24,0l-43.98-43.98L221.6,384
				c4.07-2.69,7.56-6.18,10.24-10.24l49.57,49.57C284.24,426.16,284.24,430.74,281.41,433.57z"/>
			<path class="st1" d="M234.07,375.99l11.46,11.46c-2.68,4.07-6.17,7.56-10.24,10.24h0l-5.87-5.87l-5.59-5.59
				C227.9,383.55,231.39,380.06,234.07,375.99z"/>
			<g>
				<path class="st3" d="M245.49,352.12c-0.08-1.86-0.27-3.68-0.58-5.47c-1.72-10.17-6.96-19.14-14.41-25.62
					c-7.67-6.67-17.69-10.71-28.66-10.71c-24.13,0-43.69,19.56-43.69,43.69c0,1.67,0.09,3.32,0.28,4.94
					c0.57,5.08,2.02,9.9,4.18,14.3v0c3.11,6.33,7.7,11.79,13.33,15.94c0.91,0.67,1.86,1.31,2.82,1.92
					c6.7,4.18,14.61,6.59,23.08,6.59c9.45,0,18.2-3,25.34-8.1c0,0,0,0,0,0c3.96-2.82,7.42-6.29,10.24-10.24v0h0
					c2.84-3.98,5.02-8.44,6.4-13.25c1.1-3.84,1.69-7.89,1.69-12.09C245.53,353.37,245.52,352.75,245.49,352.12z M201.85,389.92
					c-7.86,0-15.13-2.52-21.04-6.81c-5.74-4.15-10.2-9.97-12.69-16.74c-1.41-3.86-2.19-8.03-2.19-12.37c0-1.64,0.11-3.25,0.32-4.82
					c1.79-13.32,10.87-24.32,23.1-28.86c3.89-1.44,8.1-2.23,12.49-2.23c1.59,0,3.15,0.1,4.69,0.3c7.28,0.95,13.88,4.08,19.11,8.71
					c7.43,6.58,12.12,16.19,12.12,26.9c0,0.55-0.01,1.09-0.04,1.63c-0.12,2.64-0.52,5.2-1.18,7.66c-1.01,3.77-2.61,7.29-4.7,10.47
					c-2.69,4.07-6.17,7.56-10.24,10.24c-1,0.66-2.03,1.27-3.1,1.83c-2.27,1.19-4.69,2.15-7.22,2.84
					C208.28,389.48,205.11,389.92,201.85,389.92z"/>
				<g>
					<path class="st2" d="M174.65,357.95c-1.85,0-3.35-1.5-3.35-3.35c0-8.32,3.24-16.14,9.12-22.02c5.88-5.88,13.7-9.12,22.02-9.12
						c1.85,0,3.35,1.5,3.35,3.35s-1.5,3.35-3.35,3.35c-6.53,0-12.66,2.54-17.28,7.16c-4.62,4.62-7.16,10.75-7.16,17.28
						C178,356.45,176.5,357.95,174.65,357.95z"/>
				</g>
			</g>
		</g>
	</g>
</g>
</svg>
